<svg width="57" height="47" viewBox="0 0 57 47" xmlns="http://www.w3.org/2000/svg" xmlns:xlink="http://www.w3.org/1999/xlink">
  <defs>
    <path id="a" d="M28.471 47.01H0V0h56.942v47.01z"/>
  </defs>
  <g fill="none" fill-rule="evenodd">
    <g>
      <mask id="b" fill="#fff">
        <use xlink:href="#a"/>
      </mask>
      <path d="M28.472 0C13.144 0 1.138 19.316 0 35.632 4.81 43.9 16.408 47.009 28.472 47.009c12.063 0 23.662-3.109 28.47-11.377C55.807 19.316 43.8 0 28.473 0" fill="#B3DCFF" mask="url(#b)"/>
    </g>
    <path d="M46.387 20.126c-3.362-4.324-7.646-8.899-10.131-8.899-2.485 0-9.428 12.268-12.614 12.268s-4.84-5.583-8.758-5.56c-5.336.03-10.566 15.68-10.566 15.68s2.162 9.567 24.79 9.567 24.437-9.41 24.437-9.41-2.33-7.429-7.16-13.645" fill="#5ECC62"/>
    <path d="M23.5 28.499c-3.467 0-5.243-3.414-6.207-5.522-.866-1.898-1.017-4.896-3.475-4.98.242-.096.474-.152.692-.152 3.865 0 5.496 5.487 8.64 5.487 3.141 0 9.99-12.105 12.44-12.105.462 0 .98.164 1.546.452-.417-.054-.952-.016-1.364.397C34.98 12.866 27.79 28.5 23.5 28.5" fill="#00AD45"/>
    <path d="M16.41 32.295c0 1.62 1.28 2.93 2.857 2.93 1.579 0 2.858-1.31 2.858-2.93 0-1.618-1.279-2.931-2.858-2.931-1.576 0-2.858 1.314-2.858 2.931m18.466 0c0 1.62 1.279 2.93 2.858 2.93 1.579 0 2.858-1.31 2.858-2.93 0-1.618-1.28-2.931-2.858-2.931-1.579 0-2.858 1.314-2.858 2.931m-6.304 7.432c-4.007 0-5.827-2.995-5.9-3.123a.915.915 0 0 1 .293-1.24.867.867 0 0 1 1.206.3c.063.103 1.417 2.257 4.402 2.257 3.08 0 4.218-2.18 4.227-2.2a.87.87 0 0 1 1.187-.386c.43.229.6.772.375 1.216-.066.129-1.652 3.175-5.79 3.175" fill="#000" fill-rule="nonzero"/>
  </g>
</svg>
