<svg viewBox="0 0 64 64" fill="none" xmlns="http://www.w3.org/2000/svg" class="w-36 sm:w-48 lg:w-64 h-36 sm:h-48 lg:h-64" height="64" width="64"><path d="M64 28.65H44.504l16.884-9.75-3.35-5.802-16.885 9.749 9.748-16.884-5.804-3.35-9.747 16.881V0h-6.7v19.496L18.9 2.612l-5.802 3.35 9.747 16.883-16.882-9.747-3.35 5.803 16.883 9.749H0v6.7h19.494L2.612 45.097l3.35 5.804 16.885-9.748-9.75 16.885 5.804 3.35 9.749-16.884V64h6.7V44.086l9.928 17.197 5.44-3.141-9.929-17.2 17.247 9.959 3.35-5.804-16.882-9.747h19.494v-6.7H64zM32 41.11a9.11 9.11 0 110-18.22 9.11 9.11 0 010 18.22z" fill="#625DF5"></path></svg>