<svg width="164" height="164" viewBox="0 0 164 164" fill="none" xmlns="http://www.w3.org/2000/svg">
<path d="M151.7 0H12.3C5.5069 0 0 5.5069 0 12.3V151.7C0 158.493 5.5069 164 12.3 164H151.7C158.493 164 164 158.493 164 151.7V12.3C164 5.5069 158.493 0 151.7 0Z" fill="#FFD02F"/>
<path fill-rule="evenodd" clip-rule="evenodd" d="M112.23 20H94.08L109.21 46.57L75.94 20H57.79L74.43 52.48L39.65 20H21.5L39.65 61.33L21.5 144H39.65L74.43 55.43L57.79 144H75.94L109.21 49.52L94.08 144H112.23L145.5 40.67L112.23 20Z" fill="#050038"/>
</svg>
