<svg width="43" height="43" viewBox="0 0 43 43" xmlns="http://www.w3.org/2000/svg">
  <defs>
    <linearGradient x1="50%" y1="0%" x2="50%" y2="100%" id="a">
      <stop stop-color="#0091E6" offset="0%"/>
      <stop stop-color="#0079BF" offset="100%"/>
    </linearGradient>
  </defs>
  <g fill-rule="nonzero" fill="none">
    <path d="M8 0h27a8 8 0 0 1 8 8v27a8 8 0 0 1-8 8H8a8 8 0 0 1-8-8V8a8 8 0 0 1 8-8z" fill="url(#a)"/>
    <path d="M27 6h7a3 3 0 0 1 3 3v13a3 3 0 0 1-3 3h-7a3 3 0 0 1-3-3V9a3 3 0 0 1 3-3zM9 6h7a3 3 0 0 1 3 3v24a3 3 0 0 1-3 3H9a3 3 0 0 1-3-3V9a3 3 0 0 1 3-3z" fill="#FFF"/>
  </g>
</svg>
