<svg width="45" height="43" viewBox="0 0 45 43" xmlns="http://www.w3.org/2000/svg">
  <defs>
    <radialGradient cx="50%" cy="54.652%" fx="50%" fy="54.652%" r="70.833%" gradientTransform="matrix(.93548 0 0 1 .032 0)" id="a">
      <stop stop-color="#FFB900" offset="0%"/>
      <stop stop-color="#F95D8F" offset="60%"/>
      <stop stop-color="#F95353" offset="99.91%"/>
    </radialGradient>
  </defs>
  <path d="M35.214 22.286c-5.406 0-9.787 4.435-9.787 9.905 0 5.471 4.381 9.906 9.787 9.906 5.404 0 9.786-4.435 9.786-9.906 0-5.47-4.382-9.905-9.786-9.905zm-25.427.001C4.382 22.287 0 26.721 0 32.192c0 5.47 4.382 9.905 9.787 9.905 5.405 0 9.787-4.435 9.787-9.905 0-5.471-4.382-9.905-9.787-9.905zm22.5-12.382c0 5.47-4.382 9.906-9.787 9.906-5.405 0-9.787-4.436-9.787-9.906C12.713 4.435 17.095 0 22.5 0c5.405 0 9.786 4.435 9.786 9.905z" transform="translate(0 .726)" fill="url(#a)" fill-rule="nonzero"/>
</svg>
