<svg width="154" height="154" viewBox="0 0 154 154" xmlns="http://www.w3.org/2000/svg" xmlns:xlink="http://www.w3.org/1999/xlink">
    <defs>
        <path d="M148.503 48.294c13.854 34.707.792 74.351-30.98 94.025-31.772 19.674-73.083 13.7-97.978-14.17l-2.36 2.358a12.09 12.09 0 0 1-16.017.909c.359-.283.701-.587 1.026-.909l33.298-33.25.731-.732a11.548 11.548 0 0 1 15.676 0l.637.649 14.969 14.968c.039.043.08.084.124.123l.265.23c4.787 4.347 12.138 4.192 16.737-.353zM36.873 11.297c28.893-17.653 65.926-14.366 91.26 8.098l1.05-1.05a12.09 12.09 0 0 1 16.123-.825c-.415.323-.81.674-1.18 1.05L83.972 78.726a11.548 11.548 0 0 1-15.806 0l-.554-.555-14.627-14.626c-.141-.153-.247-.33-.389-.472-4.749-4.682-12.378-4.682-17.127 0-.153.142-.247.319-.389.472L2.43 96.195C-5.997 63.4 7.98 28.95 36.874 11.297z" id="a"/>
        <linearGradient x1="83.831%" y1="19.837%" x2="83.831%" y2="80.351%" id="b">
            <stop stop-color="#0EE3D1" offset="0%"/>
            <stop stop-color="#019B8E" offset="100%"/>
        </linearGradient>
        <linearGradient x1="50%" y1="0%" x2="50%" y2="100%" id="d">
            <stop stop-color="#01BFAF" offset="0%"/>
            <stop stop-color="#019B8E" offset="100%"/>
        </linearGradient>
    </defs>
    <g fill="none" fill-rule="evenodd">
        <mask id="c" fill="#fff">
            <use xlink:href="#a"/>
        </mask>
        <use fill="#01BAAB" fill-rule="nonzero" opacity=".197" xlink:href="#a"/>
        <ellipse fill="url(#b)" mask="url(#c)" cx="-22.07" cy="76.51" rx="110.35" ry="109.86"/>
        <circle fill="url(#d)" opacity=".3" mask="url(#c)" cx="126.045" cy="132.911" r="91.713"/>
        <path d="M116.266 189.312c40.901 0 74.058-33.156 74.058-74.057s-33.157-74.058-74.058-74.058c-40.9 0-106.457 65.876-106.457 106.776 0 40.901 65.557 41.34 106.457 41.34z" fill="#01BBAC" opacity=".5" mask="url(#c)"/>
    </g>
</svg>