<?xml version="1.0" encoding="utf-8"?>
<!-- Generator: Adobe Illustrator 24.2.1, SVG Export Plug-In . SVG Version: 6.00 Build 0)  -->
<svg version="1.1" id="Layer_1" xmlns="http://www.w3.org/2000/svg" xmlns:xlink="http://www.w3.org/1999/xlink" x="0px" y="0px"
	 width="356.2px" height="226.1px" viewBox="0 0 356.2 226.1" enable-background="new 0 0 356.2 226.1" xml:space="preserve">
<g>
	<g>
		<g>
			<g>
				<g>
					<g>
						<g>
							<defs>
								<rect id="SVGID_1_" width="356.2" height="226.1"/>
							</defs>
							<clipPath id="SVGID_2_">
								<use xlink:href="#SVGID_1_"  overflow="visible"/>
							</clipPath>
							<g clip-path="url(#SVGID_2_)">
								<g>
									<path fill="#08CF65" d="M83.6,82.2c17.1,0,25.2,3.3,38,15.7l67,67c1.4,0.9,2.4,2.4,2.8,3.8c0.5,0.9,0.5,1.9,0,2.8
										c-0.5,1.4-1.4,2.8-2.8,3.8l-46.1,46.1c-0.9,1.4-2.4,2.4-3.8,2.8c-0.9,0.5-1.9,0.5-2.8,0c-1.4-0.5-2.8-1.4-3.8-2.8L1.9,91.7
										c-3.8-3.8-2.4-9.5,3.8-9.5H83.6z"/>
									<path fill="#08CF65" d="M272.6,0c-17.1,0-25.2,3.3-38,15.7l-66.5,67c-1.4,0.9-2.4,2.4-2.8,3.8c-0.5,0.9-0.5,1.9,0,2.8
										c0.5,1.4,1.4,2.8,2.8,3.8l46.1,46.1c0.9,1.4,2.4,2.4,3.8,2.8c0.9,0.5,1.9,0.5,2.8,0c1.4-0.5,2.8-1.4,3.8-2.8L354.3,9.5
										c3.8-3.8,2.4-9.5-3.8-9.5H272.6L272.6,0z"/>
								</g>
							</g>
						</g>
					</g>
				</g>
			</g>
		</g>
	</g>
</g>
</svg>
